<svg width="107" height="18" viewBox="0 0 107 18" fill="none" xmlns="http://www.w3.org/2000/svg">
<path d="M39.4135 7.98272C40.2528 7.05625 41.3927 6.53173 42.6235 6.50845C42.6535 6.50722 42.6834 6.50722 42.7121 6.50722C43.6065 6.50722 44.459 6.77192 45.187 7.26825L38.9633 13.6371C37.8462 11.9055 37.9959 9.54767 39.4135 7.98272ZM26.9099 6.57707C26.2993 6.40182 25.6982 6.09423 25.6611 5.55747C25.6468 5.34301 25.7054 5.15428 25.8228 5.04031C25.903 4.96188 26.0059 4.92266 26.1317 4.92266C26.1592 4.92266 26.1867 4.92511 26.2155 4.92879C26.328 4.94227 26.4861 4.99742 26.5938 5.18125C26.8489 5.61385 26.9518 6.1028 26.9099 6.57707ZM16.9051 15.6984C14.4291 15.6984 12.4152 13.6371 12.4152 11.1028C12.4152 8.5685 14.4291 6.50722 16.9051 6.50722C19.3812 6.50722 21.3951 8.5685 21.3951 11.1028C21.3951 13.6371 19.3812 15.6984 16.9051 15.6984ZM49.6745 10.446L45.885 14.3528C45.0134 15.2438 43.8556 15.7217 42.6235 15.6984C41.7579 15.6812 40.9365 15.4165 40.2325 14.9386L47.79 7.20331L47.1542 6.55379C45.9353 5.30624 44.3165 4.63957 42.59 4.67021C40.8659 4.70453 39.2698 5.43614 38.0953 6.73393C36.3077 8.70943 35.9617 11.5869 37.0572 13.9116L35.4899 15.5452C35.278 15.7634 35.0397 15.696 34.9463 15.6567C34.8541 15.6175 34.6386 15.4938 34.6386 15.1849V9.49006C34.6386 8.75354 34.3584 8.06115 33.8496 7.54032C33.3407 7.01948 32.6642 6.73271 31.9447 6.73271H28.6999C28.7729 5.88222 28.5886 5.006 28.1312 4.23149C27.7612 3.60404 27.1422 3.19227 26.4346 3.10403C25.733 3.01579 25.0768 3.23026 24.5859 3.70698C24.0783 4.20085 23.8172 4.92267 23.8699 5.68738C23.9202 6.41042 24.2926 7.5783 26.0419 8.22046L23.1899 11.158C23.1899 11.1396 23.191 11.1212 23.191 11.1028C23.191 7.55502 20.3714 4.66898 16.9051 4.66898C13.4389 4.66898 10.6192 7.55502 10.6192 11.1028C10.6192 12.1028 10.8431 13.0501 11.243 13.8957L9.63739 15.544V15.5452C9.53801 15.6469 9.42308 15.6984 9.28778 15.6984H2.19246V0.44104H0.396484V17.5366H9.29376C9.9008 17.5366 10.4743 17.2903 10.9101 16.8418L12.2703 15.4435C13.4209 16.729 15.072 17.5366 16.9051 17.5366C18.6616 17.5366 20.2504 16.794 21.3927 15.6016L27.5361 9.28908C27.7516 9.06849 27.9384 8.82707 28.0953 8.57094H31.9447C32.1841 8.57094 32.4104 8.66654 32.5792 8.83934C32.7492 9.01336 32.8426 9.24497 32.8426 9.49006V15.1849C32.8426 16.1396 33.3994 16.9913 34.2615 17.3553C34.5464 17.4766 34.8446 17.5342 35.1391 17.5342C35.7366 17.5342 36.3232 17.294 36.7639 16.8418L38.0869 15.4619L38.0953 15.4729C39.2698 16.7695 40.8659 17.5023 42.59 17.5354C42.6307 17.5366 42.6726 17.5366 42.7133 17.5366C44.392 17.5366 45.9641 16.8712 47.1542 15.6531L50.9485 11.7413L49.6745 10.446Z" fill="#F0EBEA"/>
<path d="M61.4419 8.18597H60.5547V13.5414H61.4419V8.18597Z" fill="#F0EBEA"/>
<path d="M66.3176 11.9348L63.0992 8.18597H62.4023V13.5414H63.2896V9.79261L66.5151 13.5414H67.2036V8.18597H66.3176V11.9348Z" fill="#F0EBEA"/>
<path d="M72.7236 10.8257L70.9934 10.8098V9.1198H72.7751C73.6539 9.1198 73.8011 9.38697 73.8011 9.97643C73.8011 10.55 73.6539 10.8257 72.7236 10.8257ZM72.7751 8.18597H70.1074V13.5414H70.9934V11.7509H72.7308C74.1819 11.7509 74.6884 10.9176 74.6884 9.97643C74.6884 8.99726 74.1675 8.18597 72.7751 8.18597Z" fill="#F0EBEA"/>
<path d="M76.4478 8.18597H75.5605V13.5414H79.8266V12.6149H76.4478V8.18597Z" fill="#F0EBEA"/>
<path d="M82.7056 11.4985L83.5629 9.64676L84.413 11.4985H82.7056ZM83.248 8.18597L80.7852 13.5414H81.7741L82.2806 12.4311L84.8381 12.4237L85.3589 13.5414H86.3335L83.8706 8.18597H83.248Z" fill="#F0EBEA"/>
<path d="M87.7922 10.55L86.092 8.18597H84.9414L87.3528 11.5671V13.5414H88.24V11.5671L90.6442 8.18597H89.4936L87.7922 10.55Z" fill="#F0EBEA"/>
<path d="M60.2448 16.4436C57.2443 16.4436 54.4174 13.9338 54.4174 10.8639C54.4174 7.79284 56.8576 5.29528 59.858 5.29528H96.4709C94.7072 6.49013 93.5434 8.53671 93.5434 10.8639C93.5434 13.1899 94.7072 15.2377 96.4709 16.4325L60.2448 16.4436ZM100.065 5.29528C103.066 5.29528 105.506 7.79284 105.506 10.8639C105.506 13.9338 103.066 16.4325 100.065 16.4325H99.9838C97.0192 16.3884 94.621 13.908 94.621 10.8639C94.621 7.8198 97.0192 5.33939 99.9838 5.29528H100.065ZM100.063 4.18988C100.036 4.18988 100.01 4.19233 99.9838 4.19233H59.858C56.2577 4.19233 53.3398 7.17886 53.3398 10.8639C53.3398 14.5477 56.66 17.5355 60.2604 17.5355H99.9838C100.01 17.5355 100.036 17.5367 100.063 17.5367C103.664 17.5367 106.583 14.549 106.583 10.8639C106.583 7.17764 103.664 4.18988 100.063 4.18988Z" fill="#F0EBEA"/>
<g filter="url(#filter0_f_359_10206)">
<path d="M102.347 10.8075L102.064 11.1871C101.062 12.5352 100.399 13.4252 99.5901 13.4252C98.9272 13.4252 98.4102 12.7917 98.4102 11.9855C98.4102 11.234 99.4734 10.8075 99.2579 10.8075C99.4159 10.7193 98.4102 10.4693 98.4102 9.62959C98.4102 8.82335 98.9272 8.18988 99.5901 8.18988C100.399 8.18988 101.062 9.07988 102.064 10.428L102.347 10.8075Z" fill="url(#paint0_radial_359_10206)"/>
<path d="M100.968 10.7928C100.968 11.1258 100.704 11.3958 100.379 11.3958C100.053 11.3958 99.7895 11.1258 99.7895 10.7928C99.7895 10.4598 100.053 10.1899 100.379 10.1899C100.704 10.1899 100.968 10.4598 100.968 10.7928Z" fill="#F0EBEA"/>
</g>
<defs>
<filter id="filter0_f_359_10206" x="97.33" y="7.10973" width="6.0978" height="7.3956" filterUnits="userSpaceOnUse" color-interpolation-filters="sRGB">
<feFlood flood-opacity="0" result="BackgroundImageFix"/>
<feBlend mode="normal" in="SourceGraphic" in2="BackgroundImageFix" result="shape"/>
<feGaussianBlur stdDeviation="0.540076" result="effect1_foregroundBlur_359_10206"/>
</filter>
<radialGradient id="paint0_radial_359_10206" cx="0" cy="0" r="1" gradientUnits="userSpaceOnUse" gradientTransform="translate(100.379 10.8075) rotate(179.531) scale(2.3334 3.10291)">
<stop offset="0.556111" stop-color="#FF6D62"/>
<stop offset="1" stop-color="#FFB640"/>
</radialGradient>
</defs>
</svg>
