<svg width="137" height="22" viewBox="0 0 137 22" fill="none" xmlns="http://www.w3.org/2000/svg">
<path d="M50.4775 9.72837C51.5513 8.57028 53.0096 7.91464 54.5844 7.88553C54.6227 7.884 54.661 7.884 54.6977 7.884C55.842 7.884 56.9327 8.21487 57.8641 8.83528L49.9015 16.7964C48.4722 14.6319 48.6637 11.6846 50.4775 9.72837ZM34.4802 7.9713C33.6989 7.75225 32.93 7.36776 32.8825 6.6968C32.8641 6.42873 32.9391 6.19282 33.0893 6.05036C33.1919 5.95232 33.3236 5.90329 33.4845 5.90329C33.5197 5.90329 33.5549 5.90636 33.5917 5.91095C33.7357 5.92781 33.9379 5.99675 34.0758 6.22653C34.4021 6.76728 34.5338 7.37847 34.4802 7.9713ZM21.6799 19.373C18.512 19.373 15.9354 16.7964 15.9354 13.6285C15.9354 10.4606 18.512 7.884 21.6799 7.884C24.8478 7.884 27.4244 10.4606 27.4244 13.6285C27.4244 16.7964 24.8478 19.373 21.6799 19.373ZM63.6055 12.8074L58.7572 17.691C57.642 18.8047 56.1607 19.4021 54.5844 19.373C53.4768 19.3515 52.426 19.0207 51.5252 18.4232L61.1944 8.7541L60.3809 7.94221C58.8215 6.38277 56.7504 5.54944 54.5415 5.58773C52.3356 5.63063 50.2936 6.54514 48.7909 8.16739C46.5038 10.6368 46.0611 14.2336 47.4627 17.1395L45.4575 19.1815C45.1864 19.4542 44.8815 19.3699 44.7621 19.3209C44.6441 19.2719 44.3684 19.1172 44.3684 18.7311V11.6125C44.3684 10.6919 44.0099 9.82641 43.3589 9.17537C42.7078 8.52432 41.8423 8.16585 40.9217 8.16585H36.7703C36.8638 7.10274 36.6279 6.00747 36.0427 5.03933C35.5693 4.25502 34.7774 3.7403 33.872 3.63001C32.9744 3.51971 32.1349 3.7878 31.5068 4.38369C30.8573 5.00103 30.5234 5.90331 30.5908 6.85919C30.6551 7.76299 31.1315 9.22284 33.3696 10.0255L29.7207 13.6974C29.7207 13.6744 29.7222 13.6515 29.7222 13.6285C29.7222 9.19374 26.1147 5.5862 21.6799 5.5862C17.2452 5.5862 13.6377 9.19374 13.6377 13.6285C13.6377 14.8785 13.9241 16.0626 14.4357 17.1196L12.3815 19.18V19.1815C12.2544 19.3086 12.1073 19.373 11.9342 19.373H2.85639V0.30127H0.558594V21.6708H11.9419C12.7185 21.6708 13.4523 21.3629 14.0099 20.8022L15.7501 19.0544C17.2222 20.6613 19.3347 21.6708 21.6799 21.6708C23.9272 21.6708 25.96 20.7425 27.4214 19.252L35.2813 11.3613C35.5571 11.0856 35.7961 10.7838 35.9967 10.4637H40.9217C41.2281 10.4637 41.5176 10.5831 41.7336 10.7991C41.9511 11.0167 42.0706 11.3062 42.0706 11.6125V18.7311C42.0706 19.9245 42.7829 20.9891 43.8858 21.4441C44.2504 21.5957 44.6318 21.6677 45.0087 21.6677C45.7731 21.6677 46.5237 21.3675 47.0874 20.8022L48.7801 19.0773L48.7909 19.0911C50.2936 20.7118 52.3356 21.6279 54.5415 21.6692C54.5936 21.6708 54.6472 21.6708 54.6993 21.6708C56.8469 21.6708 58.8583 20.839 60.3809 19.3163L65.2354 14.4266L63.6055 12.8074Z" fill="#69162B"/>
<path d="M78.6644 9.98242H77.5293V16.6767H78.6644V9.98242Z" fill="#69162B"/>
<path d="M84.9018 14.6684L80.7841 9.98242H79.8926V16.6767H81.0277V11.9907L85.1545 16.6767H86.0353V9.98242H84.9018V14.6684Z" fill="#69162B"/>
<path d="M93.0971 13.2821L90.8836 13.2621V11.1497H93.163C94.2874 11.1497 94.4758 11.4837 94.4758 12.2205C94.4758 12.9374 94.2874 13.2821 93.0971 13.2821ZM93.163 9.98242H89.75V16.6767H90.8836V14.4386H93.1063C94.9629 14.4386 95.6109 13.397 95.6109 12.2205C95.6109 10.9965 94.9446 9.98242 93.163 9.98242Z" fill="#69162B"/>
<path d="M97.8617 9.98242H96.7266V16.6767H102.185V15.5186H97.8617V9.98242Z" fill="#69162B"/>
<path d="M105.869 14.1231L106.966 11.8084L108.054 14.1231H105.869ZM106.563 9.98242L103.412 16.6767H104.677L105.325 15.2888L108.597 15.2796L109.264 16.6767H110.511L107.36 9.98242H106.563Z" fill="#69162B"/>
<path d="M112.376 12.9374L110.201 9.98242H108.729L111.814 14.2088V16.6767H112.949V14.2088L116.025 9.98242H114.553L112.376 12.9374Z" fill="#69162B"/>
<path d="M77.1311 20.3044C73.2923 20.3044 69.6756 17.1672 69.6756 13.3299C69.6756 9.491 72.7975 6.36905 76.6363 6.36905H123.479C121.223 7.86262 119.734 10.4208 119.734 13.3299C119.734 16.2373 121.223 18.7971 123.479 20.2906L77.1311 20.3044ZM128.078 6.36905C131.917 6.36905 135.039 9.491 135.039 13.3299C135.039 17.1672 131.917 20.2906 128.078 20.2906H127.974C124.181 20.2355 121.112 17.135 121.112 13.3299C121.112 9.5247 124.181 6.4242 127.974 6.36905H128.078ZM128.075 4.9873C128.041 4.9873 128.007 4.99037 127.974 4.99037H76.6363C72.03 4.99037 68.2969 8.72353 68.2969 13.3299C68.2969 17.9346 72.5447 21.6693 77.1511 21.6693H127.974C128.007 21.6693 128.041 21.6708 128.075 21.6708C132.683 21.6708 136.417 17.9362 136.417 13.3299C136.417 8.722 132.683 4.9873 128.075 4.9873Z" fill="#69162B"/>
<g filter="url(#filter0_f_40000831_1551)">
<path d="M130.998 13.2594L130.635 13.7338C129.354 15.4189 128.505 16.5314 127.471 16.5314C126.622 16.5314 125.961 15.7396 125.961 14.7318C125.961 13.7925 127.321 13.2594 127.045 13.2594C127.248 13.1491 125.961 12.8366 125.961 11.7869C125.961 10.7791 126.622 9.9873 127.471 9.9873C128.505 9.9873 129.354 11.0998 130.635 12.7849L130.998 13.2594Z" fill="url(#paint0_radial_40000831_1551)"/>
<path d="M129.233 13.241C129.233 13.6572 128.896 13.9947 128.479 13.9947C128.063 13.9947 127.726 13.6572 127.726 13.241C127.726 12.8247 128.063 12.4873 128.479 12.4873C128.896 12.4873 129.233 12.8247 129.233 13.241Z" fill="#F0EBEA"/>
</g>
<defs>
<filter id="filter0_f_40000831_1551" x="124.881" y="8.90715" width="7.19741" height="8.70443" filterUnits="userSpaceOnUse" color-interpolation-filters="sRGB">
<feFlood flood-opacity="0" result="BackgroundImageFix"/>
<feBlend mode="normal" in="SourceGraphic" in2="BackgroundImageFix" result="shape"/>
<feGaussianBlur stdDeviation="0.540076" result="effect1_foregroundBlur_40000831_1551"/>
</filter>
<radialGradient id="paint0_radial_40000831_1551" cx="0" cy="0" r="1" gradientUnits="userSpaceOnUse" gradientTransform="translate(128.479 13.2594) rotate(179.542) scale(2.98537 3.87864)">
<stop offset="0.556111" stop-color="#FF6D62"/>
<stop offset="1" stop-color="#FFB640"/>
</radialGradient>
</defs>
</svg>
