<svg preserveAspectRatio="none" width="100%" height="100%" overflow="visible" style="display: block;" viewBox="0 0 53 14" fill="none" xmlns="http://www.w3.org/2000/svg">
<g id="Group 1">
<path id="Vector" d="M6.7332 6.63769L2.28036 6.59763V2.34815H6.86572C9.12759 2.34815 9.5066 3.01996 9.5066 4.50219C9.5066 5.94436 9.12757 6.63769 6.7332 6.63769ZM6.86572 0H0V13.4664H2.28036V8.96428H6.75171C10.4866 8.96428 11.79 6.86883 11.79 4.50219C11.79 2.04003 10.4496 0 6.86572 0Z" fill="var(--fill-0, white)"/>
<path id="Vector_2" d="M16.3172 0H14.0338V13.4664H25.0134V11.1368H16.3172V0Z" fill="var(--fill-0, white)"/>
<path id="Vector_3" d="M32.4276 8.32946L34.6341 3.67323L36.822 8.32946H32.4276ZM33.8236 0L27.4848 13.4664H30.0302L31.3337 10.6745L37.9159 10.6561L39.2564 13.4664H41.7648L35.426 0H33.8236Z" fill="var(--fill-0, white)"/>
<path id="Vector_4" d="M45.5182 5.94434L41.1423 0H38.181L44.3872 8.50205V13.4664H46.6707V8.50205L52.8584 0H49.8971L45.5182 5.94434Z" fill="var(--fill-0, white)"/>
</g>
</svg>
