<svg preserveAspectRatio="none" width="100%" height="100%" overflow="visible" style="display: block;" viewBox="0 0 65 22" fill="none" xmlns="http://www.w3.org/2000/svg">
<path id="Vector" d="M49.9189 9.4271C50.9927 8.26901 52.451 7.61337 54.0258 7.58426C54.0641 7.58273 54.1024 7.58273 54.1391 7.58273C55.2834 7.58273 56.3741 7.9136 57.3055 8.53401L49.3429 16.4951C47.9136 14.3306 48.1051 11.3833 49.9189 9.4271ZM33.9216 7.67004C33.1403 7.45098 32.3714 7.06649 32.3239 6.39553C32.3055 6.12746 32.3805 5.89155 32.5307 5.74909C32.6333 5.65105 32.765 5.60202 32.9259 5.60202C32.9611 5.60202 32.9963 5.60509 33.0331 5.60969C33.1771 5.62654 33.3793 5.69548 33.5172 5.92526C33.8435 6.46601 33.9752 7.0772 33.9216 7.67004ZM21.1213 19.0717C17.9534 19.0717 15.3769 16.4951 15.3769 13.3272C15.3769 10.1593 17.9534 7.58273 21.1213 7.58273C24.2892 7.58273 26.8658 10.1593 26.8658 13.3272C26.8658 16.4951 24.2892 19.0717 21.1213 19.0717ZM63.0469 12.5061L58.1986 17.3897C57.0834 18.5034 55.6021 19.1008 54.0258 19.0717C52.9182 19.0503 51.8674 18.7194 50.9666 18.122L60.6358 8.45283L59.8223 7.64094C58.2629 6.0815 56.1918 5.24817 53.9829 5.28646C51.777 5.32936 49.735 6.24387 48.2323 7.86612C45.9452 10.3355 45.5025 13.9323 46.9041 16.8383L44.8989 18.8802C44.6278 19.1529 44.323 19.0686 44.2035 19.0196C44.0855 18.9706 43.8098 18.8159 43.8098 18.4299V11.3113C43.8098 10.3906 43.4513 9.52514 42.8003 8.8741C42.1492 8.22305 41.2837 7.86459 40.3631 7.86459H36.2117C36.3052 6.80147 36.0693 5.7062 35.4841 4.73806C35.0107 3.95375 34.2188 3.43903 33.3134 3.32874C32.4158 3.21844 31.5763 3.48653 30.9482 4.08242C30.2987 4.69976 29.9648 5.60204 30.0322 6.55792C30.0965 7.46172 30.5729 8.92157 32.811 9.72427L29.1621 13.3961C29.1621 13.3732 29.1636 13.3502 29.1636 13.3272C29.1636 8.89247 25.5561 5.28493 21.1213 5.28493C16.6866 5.28493 13.0791 8.89247 13.0791 13.3272C13.0791 14.5772 13.3655 15.7614 13.8772 16.8183L11.8229 18.8787V18.8802C11.6958 19.0074 11.5487 19.0717 11.3756 19.0717H2.2978V0H0V21.3695H11.3833C12.1599 21.3695 12.8937 21.0616 13.4513 20.5009L15.1915 18.7531C16.6636 20.36 18.7761 21.3695 21.1213 21.3695C23.3686 21.3695 25.4014 20.4412 26.8628 18.9507L34.7228 11.0601C34.9985 10.7843 35.2375 10.4825 35.4381 10.1624H40.3631C40.6695 10.1624 40.959 10.2819 41.175 10.4979C41.3925 10.7154 41.512 11.0049 41.512 11.3113V18.4299C41.512 19.6232 42.2243 20.6878 43.3272 21.1428C43.6918 21.2944 44.0733 21.3664 44.4501 21.3664C45.2145 21.3664 45.9651 21.0662 46.5288 20.5009L48.2215 18.7761L48.2323 18.7899C49.735 20.4106 51.777 21.3266 53.9829 21.368C54.035 21.3695 54.0886 21.3695 54.1407 21.3695C56.2883 21.3695 58.2997 20.5377 59.8223 19.015L64.6768 14.1253L63.0469 12.5061Z" fill="var(--fill-0, #F1E1DD)"/>
</svg>
