<svg preserveAspectRatio="none" width="100%" height="100%" overflow="visible" style="display: block;" viewBox="0 0 131 43" fill="none" xmlns="http://www.w3.org/2000/svg">
<g id="Group 5">
<path id="Vector" d="M100.419 18.9639C102.579 16.6343 105.513 15.3154 108.68 15.2568C108.757 15.2537 108.834 15.2537 108.908 15.2537C111.21 15.2537 113.404 15.9193 115.278 17.1674L99.2601 33.1822C96.385 28.828 96.7702 22.8991 100.419 18.9639ZM68.238 15.4294C66.6664 14.9887 65.1195 14.2152 65.024 12.8655C64.987 12.3262 65.138 11.8517 65.44 11.5651C65.6465 11.3679 65.9115 11.2692 66.235 11.2692C66.3059 11.2692 66.3768 11.2754 66.4507 11.2847C66.7404 11.3186 67.1472 11.4573 67.4245 11.9195C68.0809 13.0073 68.3459 14.2368 68.238 15.4294ZM42.4885 38.3654C36.1159 38.3654 30.9327 33.1822 30.9327 26.8096C30.9327 20.4369 36.1159 15.2537 42.4885 15.2537C48.8612 15.2537 54.0444 20.4369 54.0444 26.8096C54.0444 33.1822 48.8612 38.3654 42.4885 38.3654ZM126.828 25.1579L117.075 34.9819C114.831 37.2222 111.851 38.424 108.68 38.3654C106.452 38.3223 104.339 37.6567 102.527 36.4549L121.977 17.0041L120.341 15.3708C117.204 12.2338 113.038 10.5574 108.594 10.6345C104.157 10.7207 100.049 12.5604 97.026 15.8238C92.4252 20.7913 91.5346 28.0268 94.3542 33.8725L90.3205 37.9802C89.7751 38.5287 89.1618 38.3593 88.9215 38.2607C88.6842 38.162 88.1295 37.8508 88.1295 37.0743V22.7542C88.1295 20.9022 87.4084 19.1612 86.0987 17.8515C84.7891 16.5418 83.048 15.8207 81.196 15.8207H72.8449C73.0329 13.6821 72.5584 11.4788 71.3812 9.53128C70.429 7.95352 68.8359 6.91809 67.0147 6.69622C65.2089 6.47435 63.5202 7.01364 62.2567 8.21236C60.9501 9.45423 60.2784 11.2693 60.4139 13.1922C60.5434 15.0103 61.5017 17.947 66.0039 19.5617L58.6636 26.9482C58.6636 26.902 58.6667 26.8558 58.6667 26.8096C58.6667 17.8885 51.4097 10.6314 42.4885 10.6314C33.5674 10.6314 26.3104 17.8885 26.3104 26.8096C26.3104 29.3241 26.8866 31.7062 27.9158 33.8325L23.7835 37.9771V37.9802C23.5277 38.236 23.2319 38.3654 22.8837 38.3654H4.62234V0H0V42.9878H22.899C24.4614 42.9878 25.9375 42.3683 27.0592 41.2405L30.5598 37.7245C33.5212 40.957 37.7707 42.9878 42.4885 42.9878C47.0092 42.9878 51.0984 41.1203 54.0382 38.122L69.8497 22.2488C70.4044 21.6942 70.8851 21.0871 71.2888 20.4431H81.196C81.8123 20.4431 82.3947 20.6834 82.8292 21.1179C83.2668 21.5555 83.5072 22.1379 83.5072 22.7542V37.0743C83.5072 39.4748 84.9401 41.6165 87.1588 42.5317C87.8922 42.8368 88.6595 42.9816 89.4176 42.9816C90.9553 42.9816 92.4653 42.3776 93.5993 41.2405L97.0044 37.7707L97.026 37.7984C100.049 41.0587 104.157 42.9015 108.594 42.9847C108.699 42.9877 108.807 42.9878 108.912 42.9878C113.232 42.9878 117.278 41.3145 120.341 38.2514L130.107 28.415L126.828 25.1579Z" fill="var(--fill-0, white)"/>
</g>
</svg>
