<svg preserveAspectRatio="none" width="100%" height="100%" overflow="visible" style="display: block;" viewBox="0 0 80 80" fill="none" xmlns="http://www.w3.org/2000/svg">
<g id="Group">
<path id="Vector" d="M18.8155 61.2606C16.6876 63.3993 15.6239 66.1952 15.6239 68.9917C15.6239 71.7912 16.6917 74.5913 18.8191 76.73C23.1078 81.0406 30.089 81.0371 34.3735 76.7223L39.9766 71.0781L45.591 76.7264C47.7338 78.8835 50.5517 79.9621 53.3702 79.9621C56.1846 79.9621 58.9995 78.8835 61.1418 76.73C65.4007 72.4526 65.4007 65.538 61.1453 61.2606L61.26 61.1424C65.541 65.4013 72.452 65.3977 76.7294 61.1424C78.8829 59.0001 79.9615 56.1816 79.9615 53.3673C79.9615 50.5523 78.8829 47.7344 76.7258 45.5916L71.0817 39.9772L76.7217 34.374C81.0365 30.0854 81.04 23.1084 76.7294 18.8197C74.5907 16.6923 71.7906 15.6245 68.9947 15.6245C66.1988 15.6245 63.4023 16.6882 61.2636 18.8161L61.1453 18.7015C65.4007 14.4205 65.4007 7.50946 61.1418 3.23209C58.9995 1.07855 56.1846 0 53.3702 0C50.5517 0 47.7338 1.07855 45.591 3.23566L39.9766 8.88336L34.3735 3.23982C30.089 -1.07439 23.1078 -1.07855 18.8191 3.23209C16.6917 5.37078 15.6239 8.17086 15.6239 10.9668C15.6239 13.7633 16.6876 16.5592 18.8155 18.6979L18.7009 18.8161C16.5622 16.6882 13.7663 15.6245 10.9703 15.6245C8.17026 15.6245 5.37018 16.6923 3.2315 18.8197C-1.07855 23.1084 -1.07499 30.0854 3.23922 34.374L8.88335 39.9772L3.23506 45.5916C1.07855 47.7344 0 50.5523 0 53.3708C0 56.1852 1.07855 59.0001 3.2315 61.1424C7.50887 65.3977 14.4235 65.4013 18.7009 61.1424" fill="var(--fill-0, #FFBABA)"/>
</g>
</svg>
