<svg preserveAspectRatio="none" width="100%" height="100%" overflow="visible" style="display: block;" viewBox="0 0 15 8" fill="none" xmlns="http://www.w3.org/2000/svg">
<path id="Vector" fill-rule="evenodd" clip-rule="evenodd" d="M0.404023 0.0540742C0.742443 -0.0909628 1.13436 0.0658049 1.2794 0.404225L0.666636 0.666838C1.2794 0.404225 1.27949 0.404442 1.2794 0.404225L1.27906 0.403424C1.279 0.403307 1.27887 0.402992 1.27906 0.403424L1.28167 0.409335C1.28434 0.415344 1.28893 0.425556 1.29546 0.439692C1.30852 0.467972 1.32931 0.511892 1.35797 0.569216C1.41535 0.683965 1.50396 0.851807 1.62491 1.05502C1.86758 1.46269 2.23626 2.00566 2.7385 2.54654C2.85688 2.67402 2.98216 2.8009 3.11448 2.92554C3.12002 2.93056 3.12549 2.9357 3.13089 2.94095C4.12068 3.86777 5.50151 4.66684 7.3333 4.66684C8.13928 4.66684 8.85222 4.51296 9.48059 4.26563C10.2979 3.94392 10.983 3.45958 11.5437 2.93331C12.1768 2.33909 12.6418 1.7002 12.9488 1.2075C13.1017 0.962112 13.2138 0.755622 13.2866 0.612896C13.3229 0.541608 13.3494 0.486455 13.3661 0.450576C13.3745 0.432644 13.3804 0.419549 13.3839 0.411687L13.3872 0.404225C13.5323 0.0659893 13.9243 -0.0909247 14.2626 0.0540742C14.601 0.199111 14.7578 0.59103 14.6127 0.92945L14 0.666838C14.6127 0.92945 14.6128 0.929298 14.6127 0.92945L14.6113 0.932797L14.6089 0.93828L14.6013 0.955509C14.5949 0.969727 14.586 0.989353 14.5745 1.01398C14.5516 1.06322 14.5183 1.13253 14.4744 1.21866C14.3866 1.39077 14.256 1.63089 14.0804 1.91262C13.812 2.34339 13.4347 2.87764 12.9397 3.41636L13.4714 3.94799C13.7317 4.20834 13.7317 4.63045 13.4714 4.8908C13.211 5.15115 12.7889 5.15115 12.5286 4.8908L11.9684 4.33068C11.5923 4.63451 11.1713 4.92108 10.7038 5.1683L11.2254 5.96991C11.4262 6.27852 11.3388 6.69149 11.0302 6.89229C10.7216 7.0931 10.3087 7.00571 10.1078 6.6971L9.45087 5.68741C8.99822 5.82618 8.51464 5.92452 7.99997 5.97062V7.00017C7.99997 7.36836 7.70149 7.66684 7.3333 7.66684C6.96511 7.66684 6.66664 7.36836 6.66664 7.00017V5.97071C6.15021 5.92458 5.66676 5.82604 5.21556 5.68768L4.55876 6.6971C4.35795 7.00571 3.94499 7.0931 3.63638 6.8923C3.32777 6.69149 3.24037 6.27853 3.44118 5.96991L3.96278 5.16828C3.49604 4.92126 3.07497 4.63469 2.69831 4.33053L2.13804 4.8908C1.87769 5.15115 1.45558 5.15115 1.19523 4.8908C0.934882 4.63045 0.934882 4.20834 1.19523 3.94799L1.72686 3.41636C1.16353 2.80319 0.75181 2.195 0.479191 1.73699C0.339731 1.5027 0.235633 1.30596 0.165403 1.1655C0.130263 1.09522 0.103527 1.03888 0.0850142 0.998801C0.0757557 0.978757 0.0685469 0.962765 0.0633658 0.951114L0.0571093 0.936924L0.0551146 0.932334L0.0543996 0.930678L0.0541126 0.93001C0.0539887 0.929721 0.0538725 0.92945 0.666636 0.666838L0.0541126 0.93001C-0.0909244 0.59159 0.0656031 0.199111 0.404023 0.0540742Z" fill="var(--fill-0, #69162B)"/>
</svg>
