<svg preserveAspectRatio="none" width="100%" height="100%" overflow="visible" style="display: block;" viewBox="0 0 14 11" fill="none" xmlns="http://www.w3.org/2000/svg">
<g id="Vector">
<path d="M5.16667 5.33333C5.16667 4.50491 5.83824 3.83333 6.66667 3.83333C7.49509 3.83333 8.16667 4.50491 8.16667 5.33333C8.16667 6.16176 7.49509 6.83333 6.66667 6.83333C5.83824 6.83333 5.16667 6.16176 5.16667 5.33333Z" fill="var(--fill-0, #F0EBEA)"/>
<path fill-rule="evenodd" clip-rule="evenodd" d="M0 5.33333C0 6.42625 0.28331 6.79432 0.849929 7.53045C1.98131 9.0003 3.87874 10.6667 6.66667 10.6667C9.45459 10.6667 11.352 9.0003 12.4834 7.53045C13.05 6.79432 13.3333 6.42625 13.3333 5.33333C13.3333 4.24042 13.05 3.87235 12.4834 3.13622C11.352 1.66637 9.45459 0 6.66667 0C3.87874 0 1.98131 1.66637 0.849928 3.13622C0.283309 3.87235 0 4.24042 0 5.33333ZM6.66667 2.83333C5.28595 2.83333 4.16667 3.95262 4.16667 5.33333C4.16667 6.71405 5.28595 7.83333 6.66667 7.83333C8.04738 7.83333 9.16667 6.71405 9.16667 5.33333C9.16667 3.95262 8.04738 2.83333 6.66667 2.83333Z" fill="var(--fill-0, #F0EBEA)"/>
</g>
</svg>
