<svg preserveAspectRatio="none" width="100%" height="100%" overflow="visible" style="display: block;" viewBox="0 0 27 7" fill="none" xmlns="http://www.w3.org/2000/svg">
<g id="Progress bar">
<path id="Vector" d="M3.34712 3.29964L1.13358 3.27973V1.16728H3.413C4.53739 1.16728 4.7258 1.50124 4.7258 2.23807C4.7258 2.95498 4.53738 3.29964 3.34712 3.29964ZM3.413 0H0V6.69426H1.13358V4.45621H3.35632C5.21294 4.45621 5.86091 3.41454 5.86091 2.23807C5.86091 1.01411 5.19455 0 3.413 0Z" fill="var(--fill-0, #F1E1DD)"/>
<path id="Vector_2" d="M8.11168 0H6.97656V6.69426H12.4346V5.53616H8.11168V0Z" fill="var(--fill-0, #F1E1DD)"/>
<path id="Vector_3" d="M16.1192 4.14063L17.2161 1.82599L18.3037 4.14063H16.1192ZM16.8132 0L13.6621 6.69426H14.9275L15.5754 5.30638L18.8475 5.2972L19.5139 6.69426H20.7608L17.6098 0H16.8132Z" fill="var(--fill-0, #F1E1DD)"/>
<path id="Vector_4" d="M22.6259 2.95497L20.4506 0H18.9785L22.0637 4.22643V6.69426H23.1988V4.22643L26.2748 0H24.8027L22.6259 2.95497Z" fill="var(--fill-0, #F1E1DD)"/>
</g>
</svg>
