<svg preserveAspectRatio="none" width="100%" height="100%" overflow="visible" style="display: block;" viewBox="0 0 69 17" fill="none" xmlns="http://www.w3.org/2000/svg">
<g id="In play text">
<path id="Vector" d="M8.83427 15.3171C4.99542 15.3171 1.37868 12.1799 1.37868 8.34255C1.37868 4.50369 4.50061 1.38174 8.33946 1.38174H55.1823C52.9259 2.87531 51.4369 5.43354 51.4369 8.34255C51.4369 11.25 52.9259 13.8098 55.1823 15.3033L8.83427 15.3171ZM59.781 1.38174C63.6199 1.38174 66.7418 4.50369 66.7418 8.34255C66.7418 12.1799 63.6199 15.3033 59.781 15.3033H59.6768C55.8839 15.2482 52.8156 12.1477 52.8156 8.34255C52.8156 4.5374 55.8839 1.43689 59.6768 1.38174H59.781ZM59.7779 0C59.7442 0 59.7105 0.00306672 59.6768 0.00306672H8.33946C3.73314 0.00306672 0 3.73623 0 8.34255C0 12.9473 4.24787 16.682 8.85418 16.682H59.6768C59.7105 16.682 59.7442 16.6835 59.7779 16.6835C64.3858 16.6835 68.1205 12.9489 68.1205 8.34255C68.1205 3.7347 64.3858 0 59.7779 0Z" fill="var(--fill-0, #F1E1DD)"/>
<g id="Vector_2" filter="url(#filter0_f_40002003_65423)">
<path d="M62.7008 8.27206L62.3385 8.74651C61.0567 10.4316 60.2085 11.5441 59.1737 11.5441C58.3256 11.5441 57.6641 10.7523 57.6641 9.74449C57.6641 8.80515 59.0244 8.27206 58.7486 8.27206C58.9508 8.16177 57.6641 7.84927 57.6641 6.79963C57.6641 5.79184 58.3256 5 59.1737 5C60.2085 5 61.0567 6.1125 62.3385 7.79761L62.7008 8.27206Z" fill="url(#paint0_radial_40002003_65423)"/>
<path d="M60.9361 8.25368C60.9361 8.66992 60.5987 9.00735 60.1824 9.00735C59.7662 9.00735 59.4288 8.66992 59.4288 8.25368C59.4288 7.83743 59.7662 7.5 60.1824 7.5C60.5987 7.5 60.9361 7.83743 60.9361 8.25368Z" fill="var(--fill-0, white)"/>
</g>
</g>
<defs>
<filter id="filter0_f_40002003_65423" x="56.5839" y="3.91985" width="7.19707" height="8.70442" filterUnits="userSpaceOnUse" color-interpolation-filters="sRGB">
<feFlood flood-opacity="0" result="BackgroundImageFix"/>
<feBlend mode="normal" in="SourceGraphic" in2="BackgroundImageFix" result="shape"/>
<feGaussianBlur stdDeviation="0.540076" result="effect1_foregroundBlur_40002003_65423"/>
</filter>
<radialGradient id="paint0_radial_40002003_65423" cx="0" cy="0" r="1" gradientUnits="userSpaceOnUse" gradientTransform="translate(60.1824 8.27206) rotate(179.542) scale(2.98537 3.87864)">
<stop offset="0.556111" stop-color="#FF6D62"/>
<stop offset="1" stop-color="#FFB640"/>
</radialGradient>
</defs>
</svg>
