<svg preserveAspectRatio="none" width="100%" height="100%" overflow="visible" style="display: block;" viewBox="0 0 138 34" fill="none" xmlns="http://www.w3.org/2000/svg">
<g id="Group 3">
<path id="Vector" d="M17.7714 30.8125C10.049 30.8125 2.7734 24.5015 2.7734 16.7822C2.7734 9.05981 9.0536 2.77957 16.776 2.77957H111.007C106.468 5.78409 103.473 10.9303 103.473 16.7822C103.473 22.631 106.468 27.7803 111.007 30.7848L17.7714 30.8125ZM120.258 2.77957C127.98 2.77957 134.26 9.05981 134.26 16.7822C134.26 24.5015 127.98 30.7848 120.258 30.7848H120.048C112.418 30.6738 106.246 24.4368 106.246 16.7822C106.246 9.1276 112.418 2.89051 120.048 2.77957H120.258ZM120.252 0C120.184 0 120.116 0.00616914 120.048 0.00616914H16.776C7.50974 0.00616914 0 7.51595 0 16.7822C0 26.0454 8.54518 33.5582 17.8114 33.5582H120.048C120.116 33.5582 120.184 33.5613 120.252 33.5613C129.521 33.5613 137.034 26.0484 137.034 16.7822C137.034 7.51287 129.521 0 120.252 0Z" fill="var(--fill-0, white)"/>
<g id="Vector_2" filter="url(#filter0_f_40002002_65415)">
<path d="M126.131 16.6398L125.402 17.5942C122.824 20.984 121.118 23.222 119.036 23.222C117.33 23.222 115.999 21.6291 115.999 19.6018C115.999 17.7122 118.735 16.6398 118.181 16.6398C118.588 16.4179 115.999 15.7893 115.999 13.6778C115.999 11.6505 117.33 10.0576 119.036 10.0576C121.118 10.0576 122.824 12.2955 125.402 15.6854L126.131 16.6398Z" fill="url(#paint0_radial_40002002_65415)"/>
<path d="M122.581 16.6028C122.581 17.4401 121.902 18.1189 121.065 18.1189C120.228 18.1189 119.549 17.4401 119.549 16.6028C119.549 15.7655 120.228 15.0867 121.065 15.0867C121.902 15.0867 122.581 15.7655 122.581 16.6028Z" fill="var(--fill-0, white)"/>
</g>
</g>
<defs>
<filter id="filter0_f_40002002_65415" x="115.049" y="9.10708" width="12.0332" height="15.0654" filterUnits="userSpaceOnUse" color-interpolation-filters="sRGB">
<feFlood flood-opacity="0" result="BackgroundImageFix"/>
<feBlend mode="normal" in="SourceGraphic" in2="BackgroundImageFix" result="shape"/>
<feGaussianBlur stdDeviation="0.475249" result="effect1_foregroundBlur_40002002_65415"/>
</filter>
<radialGradient id="paint0_radial_40002002_65415" cx="0" cy="0" r="1" gradientUnits="userSpaceOnUse" gradientTransform="translate(121.065 16.6398) rotate(179.542) scale(6.00549 7.80243)">
<stop offset="0.556111" stop-color="#FF6D62"/>
<stop offset="1" stop-color="#FFB640"/>
</radialGradient>
</defs>
</svg>
