<svg width="149" height="40" viewBox="0 0 149 40" fill="none" xmlns="http://www.w3.org/2000/svg">
<path d="M56.4765 18.7284C57.5503 17.5703 59.0086 16.9146 60.5834 16.8855C60.6217 16.884 60.66 16.884 60.6968 16.884C61.8411 16.884 62.9317 17.2149 63.8631 17.8353L55.9005 25.7964C54.4713 23.6319 54.6628 20.6846 56.4765 18.7284ZM40.4792 16.9713C39.698 16.7522 38.929 16.3678 38.8815 15.6968C38.8631 15.4287 38.9382 15.1928 39.0883 15.0504C39.1909 14.9523 39.3227 14.9033 39.4835 14.9033C39.5187 14.9033 39.554 14.9064 39.5907 14.911C39.7347 14.9278 39.9369 14.9967 40.0748 15.2265C40.4011 15.7673 40.5328 16.3785 40.4792 16.9713ZM27.679 28.373C24.5111 28.373 21.9345 25.7964 21.9345 22.6285C21.9345 19.4606 24.5111 16.884 27.679 16.884C30.8469 16.884 33.4235 19.4606 33.4235 22.6285C33.4235 25.7964 30.8469 28.373 27.679 28.373ZM69.6045 21.8074L64.7562 26.691C63.641 27.8047 62.1597 28.4021 60.5834 28.373C59.4759 28.3515 58.425 28.0207 57.5243 27.4232L67.1934 17.7541L66.38 16.9422C64.8205 15.3828 62.7494 14.5494 60.5405 14.5877C58.3346 14.6306 56.2927 15.5451 54.7899 17.1674C52.5028 19.6368 52.0601 23.2336 53.4618 26.1395L51.4566 28.1815C51.1854 28.4542 50.8806 28.3699 50.7611 28.3209C50.6431 28.2719 50.3674 28.1172 50.3674 27.7311V20.6125C50.3674 19.6919 50.0089 18.8264 49.3579 18.1754C48.7068 17.5243 47.8414 17.1659 46.9207 17.1659H42.7693C42.8628 16.1027 42.6269 15.0075 42.0417 14.0393C41.5684 13.255 40.7764 12.7403 39.8711 12.63C38.9734 12.5197 38.1339 12.7878 37.5059 13.3837C36.8563 14.001 36.5224 14.9033 36.5898 15.8592C36.6541 16.763 37.1306 18.2228 39.3686 19.0255L35.7197 22.6974C35.7197 22.6744 35.7213 22.6515 35.7213 22.6285C35.7213 18.1937 32.1137 14.5862 27.679 14.5862C23.2442 14.5862 19.6367 18.1937 19.6367 22.6285C19.6367 23.8785 19.9231 25.0626 20.4348 26.1196L18.3805 28.18V28.1815C18.2534 28.3086 18.1063 28.373 17.9332 28.373H8.85541V9.30127H6.55762V30.6708H17.9409C18.7175 30.6708 19.4513 30.3629 20.0089 29.8022L21.7491 28.0544C23.2212 29.6613 25.3337 30.6708 27.679 30.6708C29.9262 30.6708 31.959 29.7425 33.4204 28.252L41.2804 20.3613C41.5561 20.0856 41.7951 19.7838 41.9958 19.4637H46.9207C47.2271 19.4637 47.5166 19.5831 47.7326 19.7991C47.9501 20.0167 48.0696 20.3062 48.0696 20.6125V27.7311C48.0696 28.9245 48.7819 29.9891 49.8849 30.4441C50.2494 30.5957 50.6309 30.6677 51.0077 30.6677C51.7721 30.6677 52.5227 30.3675 53.0865 29.8022L54.7792 28.0773L54.7899 28.0911C56.2927 29.7118 58.3346 30.6279 60.5405 30.6692C60.5926 30.6708 60.6462 30.6708 60.6983 30.6708C62.846 30.6708 64.8573 29.839 66.38 28.3163L71.2345 23.4266L69.6045 21.8074Z" fill="#F1E1DD"/>
<path d="M84.6624 18.9824H83.5273V25.6767H84.6624V18.9824Z" fill="#F1E1DD"/>
<path d="M90.8998 23.6684L86.7822 18.9824H85.8906V25.6767H87.0257V20.9907L91.1526 25.6767H92.0334V18.9824H90.8998V23.6684Z" fill="#F1E1DD"/>
<path d="M99.0952 22.2821L96.8816 22.2621V20.1497H99.161C100.285 20.1497 100.474 20.4837 100.474 21.2205C100.474 21.9374 100.285 22.2821 99.0952 22.2821ZM99.161 18.9824H95.748V25.6767H96.8816V23.4386H99.1044C100.961 23.4386 101.609 22.397 101.609 21.2205C101.609 19.9965 100.943 18.9824 99.161 18.9824Z" fill="#F1E1DD"/>
<path d="M103.86 18.9824H102.725V25.6767H108.183V24.5186H103.86V18.9824Z" fill="#F1E1DD"/>
<path d="M111.867 23.1231L112.964 20.8084L114.052 23.1231H111.867ZM112.561 18.9824L109.41 25.6767H110.675L111.323 24.2888L114.596 24.2796L115.262 25.6767H116.509L113.358 18.9824H112.561Z" fill="#F1E1DD"/>
<path d="M118.374 21.9374L116.199 18.9824H114.727L117.812 23.2088V25.6767H118.947V23.2088L122.023 18.9824H120.551L118.374 21.9374Z" fill="#F1E1DD"/>
<path d="M83.1292 29.3044C79.2903 29.3044 75.6736 26.1672 75.6736 22.3299C75.6736 18.491 78.7955 15.369 82.6344 15.369H129.477C127.221 16.8626 125.732 19.4208 125.732 22.3299C125.732 25.2373 127.221 27.7971 129.477 29.2906L83.1292 29.3044ZM134.076 15.369C137.915 15.369 141.037 18.491 141.037 22.3299C141.037 26.1672 137.915 29.2906 134.076 29.2906H133.972C130.179 29.2355 127.111 26.135 127.111 22.3299C127.111 18.5247 130.179 15.4242 133.972 15.369H134.076ZM134.073 13.9873C134.039 13.9873 134.005 13.9904 133.972 13.9904H82.6344C78.0281 13.9904 74.2949 17.7235 74.2949 22.3299C74.2949 26.9346 78.5428 30.6693 83.1491 30.6693H133.972C134.005 30.6693 134.039 30.6708 134.073 30.6708C138.681 30.6708 142.415 26.9362 142.415 22.3299C142.415 17.722 138.681 13.9873 134.073 13.9873Z" fill="#F1E1DD"/>
<g filter="url(#filter0_f_350_21759)">
<path d="M136.996 22.2594L136.633 22.7338C135.352 24.4189 134.503 25.5314 133.469 25.5314C132.62 25.5314 131.959 24.7396 131.959 23.7318C131.959 22.7925 133.319 22.2594 133.044 22.2594C133.246 22.1491 131.959 21.8366 131.959 20.7869C131.959 19.7791 132.62 18.9873 133.469 18.9873C134.503 18.9873 135.352 20.0998 136.633 21.7849L136.996 22.2594Z" fill="url(#paint0_radial_350_21759)"/>
<path d="M135.231 22.241C135.231 22.6572 134.894 22.9947 134.477 22.9947C134.061 22.9947 133.724 22.6572 133.724 22.241C133.724 21.8247 134.061 21.4873 134.477 21.4873C134.894 21.4873 135.231 21.8247 135.231 22.241Z" fill="white"/>
</g>
<defs>
<filter id="filter0_f_350_21759" x="130.879" y="17.9072" width="7.19741" height="8.70443" filterUnits="userSpaceOnUse" color-interpolation-filters="sRGB">
<feFlood flood-opacity="0" result="BackgroundImageFix"/>
<feBlend mode="normal" in="SourceGraphic" in2="BackgroundImageFix" result="shape"/>
<feGaussianBlur stdDeviation="0.540076" result="effect1_foregroundBlur_350_21759"/>
</filter>
<radialGradient id="paint0_radial_350_21759" cx="0" cy="0" r="1" gradientUnits="userSpaceOnUse" gradientTransform="translate(134.477 22.2594) rotate(179.542) scale(2.98537 3.87864)">
<stop offset="0.556111" stop-color="#FF6D62"/>
<stop offset="1" stop-color="#FFB640"/>
</radialGradient>
</defs>
</svg>
